<svg width="32" height="32" viewBox="0 0 32 32" fill="none" xmlns="http://www.w3.org/2000/svg">
<path d="M16 2.66663C10.8453 2.66663 6.66663 6.8453 6.66663 12C6.66663 13.3814 6.9676 14.6961 7.50881 15.8791C7.8459 16.616 8.22784 17.3402 8.593 18.0299L8.63284 18.1051C8.98944 18.7785 9.32899 19.4197 9.63151 20.0647C10.2601 21.4047 10.6666 22.6372 10.6666 23.8807C10.6666 24.683 11.317 25.3333 12.1192 25.3333H19.8807C20.683 25.3333 21.3333 24.683 21.3333 23.8807C21.3333 22.6372 21.7398 21.4047 22.3684 20.0647C22.6709 19.4197 23.0105 18.7786 23.367 18.1052L23.4069 18.0299C23.7721 17.3402 24.154 16.616 24.4911 15.8791C25.0323 14.6961 25.3333 13.3814 25.3333 12C25.3333 6.8453 21.1546 2.66663 16 2.66663Z" fill="white"/>
<path d="M12 26.6666C11.2636 26.6666 10.6666 27.2636 10.6666 28C10.6666 28.7363 11.2636 29.3333 12 29.3333H20C20.7363 29.3333 21.3333 28.7363 21.3333 28C21.3333 27.2636 20.7363 26.6666 20 26.6666H12Z" fill="white"/>
</svg>
